<?xml version="1.0" encoding="utf-8"?>
<!-- Generator: Adobe Illustrator 22.0.1, SVG Export Plug-In . SVG Version: 6.00 Build 0)  -->
<svg version="1.1" xmlns="http://www.w3.org/2000/svg" xmlns:xlink="http://www.w3.org/1999/xlink" x="0px" y="0px"
	 viewBox="0 0 400 400" style="enable-background:new 0 0 400 400;" xml:space="preserve">
<style type="text/css">
	.st0{fill:#0000CC;}
	.st1{fill:#FF0000;}
	.st2{fill:#F2F2F2;}
</style>
<g>
	<path class="st0" d="M157.4,215.7c-36.9,18.5-57.8,28.8-58.1,28.5c-0.2-0.2,4.2-8.9,7.5-14.5c0.4-0.7,1.3-2.4,2.1-3.8
		c6.9-12.8,6.8-10.8,1.1-20.4c-2-3.4-1.6-3.4-3.6,0.1c-0.9,1.6-2.2,3.7-2.8,4.7c-0.6,1-2.2,3.7-3.5,6c-1.3,2.3-3.9,6.8-5.8,10
		c-1.9,3.2-3.8,6.5-4.3,7.4c-0.5,0.9-2,3.5-3.4,5.8c-1.4,2.3-3.6,6.2-5,8.6c-1.4,2.4-4.3,7.4-6.4,11C68,271.4,66.8,273.6,67,274
		c0.2,0.3,27.8-13.4,111-55.3c11.3-5.7,20.7-10.5,20.8-10.6c0.4-0.4-11.2-7-12.2-6.9C186.4,201.2,173.2,207.8,157.4,215.7"/>
	<path class="st0" d="M268.9,174.7c-2.9,1.5-5.4,2.9-5.4,3.1c-0.1,0.2,2.6,5.1,6,10.8s8.1,13.6,10.4,17.6c2.3,4,5.5,9.4,7.1,12
		s4.5,7.5,6.4,10.8c1.9,3.3,5,8.5,6.9,11.6c1.8,3.1,3.3,5.7,3.1,5.8c-0.2,0.2-1.9-0.6-10-4.3c-2.2-1-4.8-2.2-5.8-2.7
		c-1-0.5-4.1-1.9-7-3.2c-4-1.8-5.3-2.3-5.7-1.9c-0.7,0.8-5.3,8.4-5.3,8.9c0,0.2,5.2,3,11.5,6.1c6.3,3.1,18.7,9.2,27.5,13.5
		c8.8,4.3,17.8,8.7,20,9.8c6.1,3,6.2,3.6-1.8-10.1c-3.4-5.8-6.4-11.1-6.8-11.8c-0.4-0.7-2.1-3.6-3.8-6.6c-1.7-2.9-3.4-5.9-3.8-6.6
		c-0.4-0.7-2.1-3.7-3.8-6.6c-1.7-2.9-3.4-5.9-3.8-6.6c-1-1.7-8.1-14.1-11.9-20.5c-1.2-2.1-2.9-5.1-3.7-6.5
		c-5.6-9.8-14.5-25.2-14.7-25.2C274.3,172,271.8,173.2,268.9,174.7"/>
	<path class="st0" d="M196.1,49.9c-2.2,3.7-6.8,11.6-10.3,17.5c-3.5,5.9-7.4,12.5-8.6,14.6c-1.3,2.1-5.1,8.7-8.6,14.6
		c-3.5,5.9-8.9,15.1-12,20.4c-3.1,5.3-8.2,14-11.4,19.4c-3.2,5.4-6.7,11.4-7.9,13.3c-1.2,1.9-2.1,3.6-2.1,3.7c0,0.1-1,1.8-2.1,3.7
		c-3.7,6.1-12.4,21.1-13.1,22.6c-1.3,2.8-1.1,3.3,4.7,13c1.1,1.8,2.2,3.2,2.4,3.2c0.4-0.1,1.3-1.6,8.4-14.1c2-3.5,5.1-8.8,6.8-11.8
		s3.4-5.9,3.8-6.6c0.9-1.5,3.6-6.3,16.2-28c3.7-6.4,7-12.2,7.4-12.8c0.4-0.7,2.1-3.6,3.8-6.6c1.7-3,4.4-7.6,6-10.4
		c1.6-2.8,3.9-6.8,5.2-9c1.3-2.2,4.4-7.6,6.9-12s5.5-9.4,6.5-11.2c1-1.8,2-3.2,2.2-3.2c0.4,0,3.7,5.6,19.8,32.6
		c4.9,8.3,10.8,18.1,13,21.8c2.3,3.7,8.1,13.5,13,21.7c4.9,8.2,9,15,9.2,15.1c0.3,0.2,7.1-3.2,9.1-4.6c1-0.7,1.6,0.5-4.9-10.8
		c-2.6-4.5-5-8.8-5.4-9.4c-0.4-0.7-2.1-3.6-3.8-6.6c-1.7-3-3.6-6.2-4.1-7.2c-0.6-1-1.4-2.5-1.9-3.3c-0.5-0.8-0.9-1.6-0.9-1.7
		c0-0.1-0.4-0.9-0.9-1.7c-0.5-0.8-1.4-2.3-1.9-3.3c-0.6-1-2.4-4.2-4.1-7.2s-3.6-6.2-4.1-7.2c-0.5-1-1.1-2-1.3-2.2
		c-0.2-0.2-0.7-1.2-1.3-2.2c-0.5-1-3.8-6.8-7.3-12.8c-3.5-6-9.4-16.4-13.2-23c-7.9-13.7-8.6-15-8.8-15
		C200.1,43.2,198.3,46.2,196.1,49.9"/>
</g>
<g id="Layer_3">
	<path class="st0" d="M271.8,208.5c-4.9,8.4-14.1,24.1-20,34.1c-3.1,5.3-8.2,14-11.4,19.4s-7.8,13.2-10.2,17.4
		c-2.5,4.2-4.9,8.3-5.4,9.2c-0.9,1.6-6.6,11.2-16.8,28.6c-2.8,4.7-5.6,9.5-6.2,10.7c-1.5,2.6-1.5,2.6-4.2-1.9
		c-6-10.1-23.1-38.7-29.8-50c-4.1-6.9-9-15.1-10.8-18.1c-1.8-3-3.4-5.6-3.4-5.7c0-0.3-7.7-12.8-8.1-13.3c-0.5-0.5-11.1,4.5-11.4,5.4
		c-0.1,0.2,0.6,1.8,1.6,3.4c1,1.6,5.5,9.2,10.1,16.9c4.6,7.7,9.6,16.2,11.2,18.8c1.6,2.6,5.3,8.9,8.2,13.8
		c2.9,4.9,7.1,11.9,9.3,15.5c2.2,3.6,3.9,6.6,3.9,6.7c0,0.1,0.3,0.7,0.8,1.3s4.2,6.9,8.5,14.1c12.1,20.4,12.8,21.6,13.2,21.8
		c0.2,0.1,1.5-1.8,2.9-4.3c1.4-2.5,5.4-9.5,8.9-15.5c3.5-6,9.1-15.8,12.4-21.6c3.3-5.8,7.4-12.9,9.1-15.8c1.7-2.9,5.1-8.9,7.7-13.4
		c2.6-4.5,6.4-11.2,8.5-14.8c2.1-3.6,4.5-7.8,5.3-9.2c0.8-1.4,5-8.8,9.4-16.4c19.5-33.9,17.9-29.1,12.5-38.1
		c-1.3-2.1-2.5-3.9-2.6-3.9C274.7,203.6,273.3,205.8,271.8,208.5"/>
	<path class="st0" d="M331.6,124.7c-0.8,0.4-7.2,3.8-14.2,7.5c-17.3,9.1-20.7,10.9-24,12.6c-4.8,2.6-9.4,5-14.4,7.6
		c-7.2,3.8-12.9,6.8-22.3,11.7c-2.9,1.5-8.1,4.3-23.9,12.6c-2.3,1.2-5.5,2.9-7,3.7c-3.2,1.7-11.3,6-17.2,9.1c-2.2,1.1-4,2.2-4.1,2.4
		c-0.1,0.3,4,2.7,9.2,5.5l2.3,1.2l8.9-4.5c4.9-2.5,12.9-6.6,17.9-9.1c32.7-16.8,60.1-30.5,60.3-30.4c0.3,0.3-4.7,8.9-12.1,20.7
		c-5.6,8.9-5.5,8.7-2.9,13.6c4.7,8.8,5.9,10.6,5.9,9.2c0-0.2,1.3-2.6,2.8-5.5c1.6-2.9,3.7-6.9,4.9-9c1.1-2.1,2.5-4.6,3-5.6
		c0.5-1,1.8-3.3,2.8-5.2c1-1.9,1.9-3.6,2.1-3.8s1.3-2.4,2.6-4.8c1.3-2.4,2.6-4.9,3-5.6c0.4-0.7,3.2-5.8,6.2-11.4
		c3-5.6,6.9-12.9,8.7-16.1C333.6,124.6,333.8,123.5,331.6,124.7"/>
	<path class="st0" d="M66.8,124.6c0,0.3,0.7,1.5,6.6,11.8c2.6,4.5,8.2,14.2,12.4,21.6c12.3,21.5,28.9,50.4,34.9,60.8
		c2.1,3.6,4.1,7.1,4.4,7.7c0.7,1.4,0.2,1.6,7.2-1.8c6-2.8,7.1-3.7,5.7-4.6c-0.2-0.1-0.6-0.6-0.7-0.9c-0.3-0.6-23.4-39.4-32.3-54.1
		c-5.8-9.5-6.4-10.8-5.6-10.8c0.5,0,4.3,1.9,5.6,2.8c0.2,0.2,2.2,1.2,4.4,2.4c2.2,1.2,6.3,3.4,9.1,4.9c2.9,1.6,5.3,2.6,5.5,2.4
		c0.4-0.4,4.6-7.6,5.5-9.5c0.7-1.5,1.8-0.8-12.9-8.3c-7-3.6-16.2-8.3-20.4-10.4C68.7,124.7,66.8,123.8,66.8,124.6"/>
</g>
<g id="Layer_4">
	<path class="st1" d="M146.2,168.1c-0.6,1-1.6,2.8-2.2,3.8c-0.6,1-1.1,2-1.1,2.1c0,0.2,3,1.8,9,5c3,1.6,5,2.7,12,6.4
		c4.1,2.2,13.2,7.1,16.2,8.7c1.4,0.8,5.1,2.8,8.2,4.4s6.7,3.6,8,4.3c3.6,1.9,7.5,4,16.8,9c4.6,2.5,9.7,5.2,11.2,6
		c1.5,0.8,4.2,2.2,5.9,3.2c4.6,2.5,9.1,4.9,10.5,5.7c0.7,0.4,3.2,1.7,5.6,3s4.9,2.7,5.6,3.1c0.7,0.4,1.4,0.7,1.6,0.7
		c0.6,0,6-10.7,5.6-11.1c-0.2-0.2-14.2-7.3-31.2-15.9c-16.9-8.5-41.8-21.1-55.3-27.8C144.7,164.5,147.6,165.7,146.2,168.1"/>
</g>
<g id="svg">
	<g id="svgg">
		<path id="path1" class="st2" d="M199.7,38.5c-0.3,0.4-3.4,5.7-13.8,23.3c-1.6,2.6-4.2,7.1-5.9,10c-1.7,2.9-4.4,7.4-6,10.2
			c-3.5,6-8.4,14.2-11.8,20c-1.4,2.3-3.8,6.4-5.4,9.2c-1.6,2.8-4.3,7.3-6,10.2c-1.7,2.9-4.1,6.9-5.3,9c-4.6,7.9-13.6,23-13.7,23.2
			c-0.2,0.2-6.3-2.9-26.4-13.2c-4.6-2.4-14.2-7.2-21.2-10.8c-7-3.6-15-7.6-17.6-9c-2.6-1.4-5.1-2.6-5.5-2.7
			c-0.7-0.3-0.6,0.1,4.1,8.7c1.3,2.5,8.8,15.9,10.4,18.8c0.5,0.9,1.7,3,2.6,4.6s2.3,4,3,5.3c0.7,1.3,3.7,6.6,6.7,11.8
			c3,5.2,5.9,10.3,6.4,11.3c0.6,1,1.4,2.4,1.9,3.2c0.5,0.8,1.3,2.2,1.9,3.2c0.6,1,2.4,4.2,4.1,7.2c4.4,7.6,4.4,8.2,0.4,14.8
			c-1.1,1.9-3.7,6.3-5.8,9.8c-2,3.5-4.5,7.7-5.4,9.2c-0.9,1.5-2.8,4.8-4.2,7.2c-1.4,2.4-3.6,6.2-4.9,8.3c-1.3,2.2-2.3,4-2.3,4.1
			c0,0.1-1.1,1.9-2.3,4.1c-1.3,2.2-3.5,5.9-4.9,8.3c-1.4,2.4-3.3,5.7-4.2,7.2c-6.4,10.8-8.9,15.3-8.5,15.6
			c0.2,0.2,16.1-7.7,35.5-17.4c19.4-9.7,35.4-17.6,35.6-17.4c0.2,0.1,1.1,1.5,2.1,3.1s3.2,5.5,5.2,8.7s7.5,12.5,12.4,20.8
			c15.6,26.3,16.5,27.7,20,33.6c1.9,3.2,3.8,6.3,4.1,6.8c0.3,0.6,3.8,6.4,7.7,13c4,6.6,7.4,12.4,7.6,12.8
			c3.9,7.2,10.8,17.7,11.2,17.1c0.4-0.6,11-18.9,13.8-23.9c0.4-0.7,2.1-3.6,3.8-6.6c1.7-2.9,3.4-5.9,3.8-6.6
			c0.4-0.7,2.8-4.9,5.4-9.4c2.6-4.5,6.7-11.7,9.2-16c4.3-7.5,9.5-16.5,14.4-25c1.3-2.2,3.1-5.4,4-7c3.5-6.2,11.9-20.6,12.2-20.9
			c0.3-0.3,2.6,0.7,26.6,12.5c7.7,3.8,17.5,8.6,21.7,10.7c4.3,2.1,10.8,5.3,14.5,7.1c9.5,4.7,10.2,4.6,7-0.7c-0.8-1.3-1.8-3.1-2.3-4
			c-0.5-0.9-2.4-4.1-4.1-7.1c-4.1-7.1-10.5-18.1-11.7-20.4c-0.6-1-1.4-2.4-1.9-3.2c-0.5-0.8-1.3-2.2-1.9-3.2
			c-1.4-2.5-5.8-10-14.3-24.8c-5.1-8.7-5.8-10.3-5.4-12.6c0.2-1.4,7-14.6,10.7-20.7c0.6-1,1.1-2,1.1-2.1s0.8-1.6,1.7-3.3
			c1-1.7,2.6-4.8,3.7-6.7c2-3.7,5-9.3,8.9-16.3c1.2-2.1,2.1-4,2.1-4.1c0-0.1,0.7-1.4,1.5-2.9c0.8-1.5,2.4-4.4,3.5-6.3
			c2-3.7,3.8-7.1,6.6-12.2c2.4-4.4,4.1-8.1,3.8-8.3c-0.1-0.1-1.6,0.5-3.3,1.4c-1.7,0.9-5.4,2.8-8.3,4.3c-2.9,1.5-6.3,3.3-7.6,4
			c-1.3,0.7-4.7,2.5-7.6,4c-2.9,1.5-7.8,4.1-11,5.8c-17.1,9.1-33.7,17.6-34.1,17.5c-0.2-0.1-1.5-2-2.8-4.3
			c-2.1-3.6-13.6-23.6-15.5-27c-0.7-1.1-5.1-8.9-17-29.6c-2.9-5.1-7.4-12.9-10-17.4c-2.6-4.5-5.2-9-5.7-10c-0.5-1-1.1-2-1.3-2.2
			c-0.2-0.2-0.7-1.2-1.3-2.2c-0.5-1-2.4-4.2-4.1-7.2c-1.7-3-3.6-6.2-4.1-7.2c-0.5-1-1.1-2-1.3-2.2c-0.2-0.2-0.8-1.4-1.5-2.6
			C200.4,37.5,200.4,37.6,199.7,38.5 M201.2,44.7c0.5,0.8,4,6.9,7.8,13.5c3.8,6.6,9.7,17,13.2,23c3.5,6.1,6.8,11.8,7.3,12.8
			c0.5,1,1.1,2,1.3,2.2c0.2,0.2,0.7,1.2,1.3,2.2c0.5,1,2.4,4.2,4.1,7.2s3.6,6.2,4.1,7.2c0.6,1,1.4,2.5,1.9,3.3
			c0.5,0.8,0.9,1.6,0.9,1.7c0,0.1,0.4,0.9,0.9,1.7c0.5,0.8,1.4,2.3,1.9,3.3c0.6,1,2.4,4.2,4.1,7.2c1.7,3,3.4,5.9,3.8,6.6
			c0.4,0.7,2.8,4.9,5.4,9.4c6.5,11.3,6,10.1,4.9,10.8c-2,1.4-8.8,4.8-9.1,4.6c-0.2-0.1-4.4-6.9-9.2-15.1c-4.9-8.2-10.7-17.9-13-21.7
			c-2.3-3.7-8.1-13.5-13-21.8c-16-27-19.4-32.5-19.8-32.6c-0.2,0-1.2,1.4-2.2,3.2c-1,1.8-3.9,6.8-6.5,11.2s-5.7,9.8-6.9,12
			c-1.3,2.2-3.6,6.3-5.2,9c-1.6,2.8-4.3,7.4-6,10.4c-1.7,3-3.4,5.9-3.8,6.6c-0.4,0.7-3.7,6.4-7.4,12.8c-12.6,21.7-15.3,26.5-16.2,28
			c-0.4,0.7-2.1,3.6-3.8,6.6s-4.8,8.3-6.8,11.8c-7.2,12.4-8.1,14-8.4,14.1c-0.2,0.1-1.3-1.4-2.4-3.2c-5.8-9.7-6-10.3-4.7-13
			c0.8-1.5,9.5-16.5,13.1-22.6c1.2-1.9,2.1-3.6,2.1-3.7c0-0.1,1-1.8,2.1-3.7c1.2-1.9,4.7-7.9,7.9-13.3c3.2-5.4,8.3-14.1,11.4-19.4
			c3.1-5.3,8.5-14.5,12-20.4c3.5-5.9,7.4-12.5,8.6-14.6c1.3-2.1,5.1-8.7,8.6-14.6c12-20.4,14.2-24.2,14.4-24.2
			C200.3,43.2,200.7,43.9,201.2,44.7 M203.9,81.1c11.9,19.8,20.4,34.1,21.2,35.7c0.6,1,2.4,4,4.1,6.8s3.1,5.2,3.2,5.4
			c0.1,0.2,4.1,7.1,9,15.2c12.1,20.3,11.2,18.6,10.5,19.2c-0.3,0.3-3.4,2-7,3.8c-6.3,3.3-10.5,5.5-16,8.4c-1.5,0.8-4.7,2.5-7,3.7
			c-2.3,1.2-5.9,3.1-8,4.2c-9.4,4.9-11.9,6.1-13.1,6.1c-1,0-34.6-16.4-49.6-24.2c-2.7-1.4-2.9-0.6,2.8-10.4
			c2.7-4.6,5.7-9.8,6.6-11.6c1-1.8,1.9-3.4,2.1-3.6c0.2-0.2,2.7-4.6,5.7-9.8c5.6-9.8,10.4-18.1,15.7-27.2c4.9-8.5,7.5-12.9,8.2-14.2
			c5.2-9.3,7.5-13,7.9-13C200.5,75.6,202.1,78.1,203.9,81.1 M330.1,131.1c-1.7,3.2-5.7,10.5-8.7,16.1c-3,5.6-5.8,10.7-6.2,11.4
			c-0.4,0.7-1.7,3.2-3,5.6c-1.3,2.4-2.4,4.6-2.6,4.8s-1.1,1.9-2.1,3.8c-1,1.9-2.3,4.2-2.8,5.2c-0.5,1-1.9,3.5-3,5.6
			c-1.1,2.1-3.3,6.1-4.9,9c-1.6,2.9-2.8,5.3-2.8,5.5c0,1.5-1.2-0.4-5.9-9.2c-2.6-4.9-2.7-4.7,2.9-13.6c7.4-11.8,12.4-20.4,12.1-20.7
			c-0.2-0.2-27.6,13.6-60.3,30.4c-4.9,2.5-13,6.6-17.9,9.1l-8.9,4.5l-2.3-1.2c-5.2-2.8-9.3-5.2-9.2-5.5c0.1-0.2,1.9-1.3,4.1-2.4
			c5.9-3.1,14-7.4,17.2-9.1c1.5-0.8,4.7-2.5,7-3.7c15.8-8.3,21-11,23.9-12.6c9.4-5,15.1-8,22.3-11.7c5-2.6,9.6-5,14.4-7.6
			c3.3-1.7,6.7-3.5,24-12.6c7-3.7,13.4-7,14.2-7.5C333.8,123.5,333.6,124.6,330.1,131.1 M78.3,129.6c5.7,2.9,13.7,7,17.9,9.1
			s13.4,6.8,20.4,10.4c14.7,7.5,13.7,6.8,12.9,8.3c-0.9,1.9-5.2,9.1-5.5,9.5c-0.2,0.2-2.6-0.9-5.5-2.4c-2.8-1.5-6.9-3.8-9.1-4.9
			c-2.2-1.2-4.2-2.2-4.4-2.4c-1.2-0.9-5.1-2.8-5.6-2.8c-0.8,0-0.2,1.2,5.6,10.8c8.9,14.7,32,53.5,32.3,54.1c0.1,0.4,0.5,0.8,0.7,0.9
			c1.4,0.9,0.3,1.8-5.7,4.6c-7,3.3-6.5,3.2-7.2,1.8c-0.3-0.6-2.3-4.1-4.4-7.7c-6-10.4-22.6-39.3-34.9-60.8
			c-4.2-7.4-9.8-17.1-12.4-21.6c-5.9-10.3-6.6-11.5-6.6-11.8C66.8,123.9,69,124.9,78.3,129.6 M295.4,163.3c-0.4,0.7-1.9,3-3.2,5.1
			c-1.4,2.1-3.4,5.3-4.6,7.2c-1.2,1.9-2.6,4-3.1,4.7l-1,1.3l-3.1-5.3c-2-3.3-3-5.5-2.8-5.7c1-1,17.8-9.3,18.2-9
			C296,161.9,295.9,162.5,295.4,163.3 M109.7,162.9c10.1,5.5,12.3,6.7,12.3,7c0,0.1-0.3,0.8-0.7,1.5c-0.4,0.7-1.4,2.5-2.2,4
			c-2.3,4.3-2.1,4.3-4.5,0.3C105,159.9,105.2,160.5,109.7,162.9 M172.5,179.1c13.5,6.8,38.3,19.3,55.3,27.8
			c16.9,8.5,31,15.7,31.2,15.9c0.4,0.4-4.9,11.1-5.6,11.1c-0.2,0-0.9-0.3-1.6-0.7c-0.7-0.4-3.2-1.8-5.6-3.1s-4.9-2.6-5.6-3
			c-1.4-0.8-5.9-3.2-10.5-5.7c-1.7-0.9-4.4-2.3-5.9-3.2c-1.5-0.8-6.6-3.5-11.2-6c-9.3-5-13.2-7.1-16.8-9c-1.3-0.7-4.9-2.6-8-4.3
			s-6.8-3.6-8.2-4.4c-7-3.8-21.9-11.8-28.2-15.1c-6-3.2-9-4.9-9-5c0-0.1,0.5-1,1.1-2.1c0.6-1,1.6-2.8,2.2-3.8
			C147.5,166.2,144.7,165.1,172.5,179.1 M281.2,183.3c3.6,6.2,7.2,12.5,8,13.9c0.8,1.4,2.5,4.4,3.7,6.5c3.8,6.5,10.9,18.8,11.9,20.5
			c0.4,0.7,2.1,3.6,3.8,6.6c1.7,2.9,3.4,5.9,3.8,6.6c0.4,0.7,2.1,3.7,3.8,6.6c1.7,2.9,3.4,5.9,3.8,6.6c0.4,0.7,3.4,6,6.8,11.8
			c8,13.7,7.9,13.1,1.8,10.1c-2.2-1.1-11.2-5.5-20-9.8c-8.8-4.3-21.2-10.4-27.5-13.5c-6.3-3.1-11.5-5.8-11.5-6.1
			c0-0.5,4.6-8.1,5.3-8.9c0.4-0.4,1.7,0.1,5.7,1.9c2.9,1.3,6,2.8,7,3.2c1,0.5,3.6,1.7,5.8,2.7c8.1,3.8,9.8,4.5,10,4.3
			c0.1-0.1-1.3-2.7-3.1-5.8c-1.8-3.1-4.9-8.3-6.9-11.6c-1.9-3.3-4.8-8.2-6.4-10.8s-4.8-8-7.1-12c-2.3-4-7-11.9-10.4-17.6
			s-6.1-10.6-6-10.8c0.1-0.4,10.4-5.7,11-5.8C274.6,172,277.6,177.1,281.2,183.3 M146.4,179.8c2.7,1.5,5.9,3.1,7,3.7
			c1.1,0.6,6.1,3.3,11.2,6c16,8.5,18.6,10,18.6,10.2c0,0.2-41.2,20.6-41.6,20.6c-0.3,0-5.5-8.4-7.6-12.2c-0.5-0.9-1.7-2.9-2.7-4.5
			c-3.1-4.9-3.6-3.2,6.4-20.5c1.7-3,3.2-5.5,3.3-5.7C141.3,177.1,140.9,176.9,146.4,179.8 M262.9,182.9c1.2,2,2.6,4.4,3,5.2
			c0.5,0.8,1.3,2.2,1.8,3c5.6,8.9,5.6,9.2,1.9,15.6c-6.7,11.6-7.9,13.6-8.5,13.7c-0.6,0.1-40.8-20-40.9-20.5
			c-0.1-0.3,39.6-20.6,40.2-20.6C260.6,179.2,261.7,180.9,262.9,182.9 M192,203.8c5.1,2.7,7.2,4,6.8,4.3c-0.1,0.1-9.5,4.9-20.8,10.6
			C94.8,260.6,67.2,274.4,67,274c-0.2-0.4,1-2.6,8.2-14.8c2.1-3.6,5-8.6,6.4-11c1.4-2.4,3.7-6.3,5-8.6c1.4-2.3,2.9-4.9,3.4-5.8
			c0.5-0.9,2.4-4.2,4.3-7.4c1.9-3.2,4.5-7.7,5.8-10c1.3-2.3,2.9-5,3.5-6c0.6-1,1.8-3.1,2.8-4.7c2-3.5,1.6-3.5,3.6-0.1
			c5.2,8.7,5.2,8.7,2.3,13.9c-1.1,2.1-2.7,5-3.5,6.4c-0.8,1.4-1.7,3.1-2.1,3.8c-3.3,5.6-7.7,14.2-7.5,14.5
			c0.3,0.3,21.2-10,58.1-28.5c15.9-8,29-14.5,29.2-14.5C186.7,201.2,189.2,202.4,192,203.8 M277.5,207.5c4.9,8.1,4.9,7.8-0.6,17.3
			c-2.2,3.8-7.6,13.2-11.9,20.8c-4.4,7.6-8.6,15-9.4,16.4c-0.8,1.4-3.2,5.6-5.3,9.2c-2.1,3.6-5.9,10.3-8.5,14.8
			c-2.6,4.5-6.1,10.5-7.7,13.4c-1.7,2.9-5.7,10-9.1,15.8c-3.3,5.8-8.9,15.5-12.4,21.6c-3.5,6.1-7.5,13-8.9,15.5
			c-1.4,2.5-2.7,4.4-2.9,4.3c-0.4-0.2-1.1-1.4-13.2-21.8c-4.2-7.1-8-13.5-8.5-14.1s-0.8-1.2-0.8-1.3c0-0.1-1.8-3.1-3.9-6.7
			c-2.2-3.6-6.3-10.6-9.3-15.5c-2.9-5-6.6-11.2-8.2-13.8c-1.6-2.6-6.6-11.1-11.2-18.8c-4.6-7.7-9.1-15.3-10.1-16.9
			c-1-1.6-1.7-3.1-1.6-3.4c0.3-0.9,10.8-5.9,11.4-5.4c0.5,0.5,8.1,13,8.1,13.3c0,0.1,1.5,2.6,3.4,5.7c1.8,3,6.7,11.2,10.8,18.1
			c6.7,11.2,23.7,39.9,29.8,50c2.7,4.6,2.7,4.6,4.2,1.9c0.6-1.2,3.4-6,6.2-10.7c10.2-17.4,15.9-27,16.8-28.6c0.5-0.9,2.9-5,5.4-9.2
			c2.5-4.2,7.1-12,10.2-17.4s8.3-14.1,11.4-19.4c5.9-10,15.1-25.7,20-34.1c1.6-2.7,3-4.9,3.1-4.9C275,203.6,276.2,205.4,277.5,207.5
			 M206.9,212.4c2,1.1,5.4,2.9,7.7,4.1c2.2,1.2,4.2,2.2,4.4,2.4c0.2,0.2,3.1,1.7,6.4,3.4c3.3,1.7,6.6,3.4,7.3,3.8
			c2.5,1.4,8.9,4.8,15.5,8.3c1.8,0.9,3.4,1.8,3.5,2c0.2,0.2-1.9,4.1-4.6,8.7c-5.5,9.3-11,18.7-19.6,33.3
			c-3.2,5.4-8.3,14.1-11.4,19.4c-3.1,5.3-8,13.5-10.8,18.3c-2.8,4.8-5.2,8.7-5.2,8.7c-0.1,0-3-4.8-23-38.4
			c-6.9-11.5-14.5-24.3-16.9-28.4c-2.4-4.1-5.7-9.6-7.3-12.2c-3.7-6.1-5.1-8.6-4.9-8.8c0.5-0.5,51-25.8,52.3-26.2
			C202.3,210.2,203.3,210.4,206.9,212.4 M120.6,224.1c1.5,2.5,2.6,4.8,2.6,5.1c0,0.4-14.5,7.9-16.7,8.7c-1.2,0.4-0.5-1,8.6-17.5
			C116.8,217.4,116.5,217.2,120.6,224.1 M296,239.4c0,0.8,0.8,1.1-11-4.4c-2.2-1-4.9-2.3-6.1-2.9c-1.2-0.5-2.1-1.1-2.1-1.2
			c0-0.4,6.5-11.6,6.9-11.9C284.2,218.9,296,238.4,296,239.4"/>
	</g>
</g>
</svg>
