<?xml version="1.0" standalone="no"?>
<!DOCTYPE svg PUBLIC "-//W3C//DTD SVG 20010904//EN"
 "http://www.w3.org/TR/2001/REC-SVG-20010904/DTD/svg10.dtd">
<svg version="1.0" xmlns="http://www.w3.org/2000/svg"
 width="256.000000pt" height="256.000000pt" viewBox="0 0 256.000000 256.000000"
 preserveAspectRatio="xMidYMid meet">
<style type="text/css">
.st0{fill:#0000CC;}
.st1{fill:#FF0000;}
.st2{fill:#F2F2F2;}
</style>
<g transform="translate(0.000000,256.000000) scale(0.100000,-0.100000)"
fill="#000000" stroke="none">
<path style="fill:#0000CC" class="st0" d="M1036 1863 c-132 -225 -246 -420 -254 -434 -17 -30 -11 -62 15 -96
18 -21 21 -16 248 378 126 219 232 399 236 399 4 0 84 -130 179 -290 l173
-289 28 15 c29 15 29 15 13 47 -48 92 -387 677 -393 677 -3 0 -114 -183 -245
-407z"/>
<path style="fill:#0000CC" class="st0" d="M617 1437 c101 -177 186 -324 189 -326 5 -5 63 20 69 29 3 5 -51 102
-119 217 -68 114 -120 209 -115 211 4 2 37 -13 72 -32 35 -20 68 -36 73 -36 5
0 17 13 27 29 l17 29 -182 94 c-101 52 -191 97 -200 101 -9 3 63 -133 169
-316z"/>
<path style="fill:#0000CC" class="st0" d="M1723 1548 c-222 -117 -403 -215 -403 -218 0 -4 15 -13 33 -22 l32
-15 273 139 c150 77 275 138 278 135 3 -2 -18 -42 -46 -88 -27 -46 -50 -91
-50 -99 1 -8 9 -30 19 -49 l18 -34 15 24 c9 13 53 94 98 179 46 85 96 179 113
208 16 28 27 52 25 52 -1 0 -184 -95 -405 -212z"/>
<path style="fill:#FF0000" class="st1" d="M929 1469 c-6 -11 -9 -22 -7 -24 6 -5 697 -375 701 -375 6 0 30 60
26 64 -9 8 -657 336 -681 345 -24 9 -29 7 -39 -10z"/>
<path style="fill:#0000CC" class="st0" d="M1712 1433 l-21 -18 124 -210 c69 -115 125 -213 125 -217 0 -4 -26 4
-57 18 -130 59 -119 56 -138 28 -9 -14 -15 -27 -13 -29 14 -12 388 -193 388
-187 0 19 -359 627 -372 630 -8 2 -24 -5 -36 -15z"/>
<path style="fill:#0000CC" class="st0" d="M920 1134 c-150 -74 -276 -132 -279 -129 -3 3 0 14 5 23 6 9 28 49
48 89 36 70 37 73 21 102 -8 17 -19 31 -23 31 -8 -1 -253 -423 -248 -428 5 -4
816 402 816 409 0 3 -15 12 -33 21 l-33 16 -274 -134z"/>
<path style="fill:#0000CC" class="st0" d="M1521 850 c-128 -220 -236 -400 -240 -400 -3 0 -79 123 -168 273 -89
149 -168 280 -175 289 -12 16 -15 16 -45 0 l-33 -17 213 -358 213 -357 251
437 c138 241 253 445 256 454 4 13 -26 80 -35 79 -2 0 -108 -180 -237 -400z"/>
</g>
</svg>
